<mxfile host="Electron" modified="2024-01-08T11:39:32.802Z" agent="Mozilla/5.0 (Windows NT 10.0; Win64; x64) AppleWebKit/537.36 (KHTML, like Gecko) draw.io/22.1.2 Chrome/114.0.5735.289 Electron/25.9.4 Safari/537.36" etag="UnunQX4iVIMkH0l_4oBX" version="22.1.2" type="device">
  <diagram name="Page-1" id="aqLo5goLTsaWTMIgIr6H">
    <mxGraphModel dx="1140" dy="833" grid="1" gridSize="10" guides="1" tooltips="1" connect="1" arrows="1" fold="1" page="0" pageScale="1" pageWidth="850" pageHeight="1100" math="1" shadow="0">
      <root>
        <mxCell id="0" />
        <mxCell id="1" parent="0" />
        <mxCell id="-Vm79UYbgd8618c4dkK5-1" value="" style="endArrow=classic;html=1;rounded=0;strokeWidth=1;fontSize=14;" parent="1" edge="1">
          <mxGeometry width="50" height="50" relative="1" as="geometry">
            <mxPoint x="40" y="280" as="sourcePoint" />
            <mxPoint x="520" y="280" as="targetPoint" />
          </mxGeometry>
        </mxCell>
        <mxCell id="-Vm79UYbgd8618c4dkK5-2" value="" style="endArrow=classic;html=1;rounded=0;strokeWidth=1;fontSize=14;" parent="1" edge="1">
          <mxGeometry width="50" height="50" relative="1" as="geometry">
            <mxPoint x="40" y="280" as="sourcePoint" />
            <mxPoint x="40" y="40" as="targetPoint" />
          </mxGeometry>
        </mxCell>
        <mxCell id="-Vm79UYbgd8618c4dkK5-4" value="" style="curved=1;endArrow=none;html=1;rounded=0;endFill=0;startArrow=none;startFill=0;strokeWidth=1;fontSize=14;" parent="1" edge="1">
          <mxGeometry width="50" height="50" relative="1" as="geometry">
            <mxPoint x="210" y="280" as="sourcePoint" />
            <mxPoint x="270" y="280" as="targetPoint" />
            <Array as="points">
              <mxPoint x="240" y="-120" />
            </Array>
          </mxGeometry>
        </mxCell>
        <mxCell id="-Vm79UYbgd8618c4dkK5-5" value="" style="endArrow=none;dashed=1;html=1;rounded=0;strokeWidth=1;fontSize=14;" parent="1" edge="1">
          <mxGeometry width="50" height="50" relative="1" as="geometry">
            <mxPoint x="240" y="280" as="sourcePoint" />
            <mxPoint x="240" y="80" as="targetPoint" />
          </mxGeometry>
        </mxCell>
        <mxCell id="-Vm79UYbgd8618c4dkK5-7" value="$$f_0$$" style="text;html=1;align=center;verticalAlign=middle;resizable=0;points=[];autosize=1;strokeColor=none;fillColor=none;strokeWidth=1;fontSize=14;" parent="1" vertex="1">
          <mxGeometry x="205" y="280" width="70" height="30" as="geometry" />
        </mxCell>
        <mxCell id="_ipKOsotd9YyGwdcFhzM-1" value="" style="endArrow=classic;startArrow=classic;html=1;rounded=0;strokeWidth=1;fontSize=14;" parent="1" edge="1">
          <mxGeometry width="50" height="50" relative="1" as="geometry">
            <mxPoint x="90" y="320" as="sourcePoint" />
            <mxPoint x="390" y="320" as="targetPoint" />
          </mxGeometry>
        </mxCell>
        <mxCell id="_ipKOsotd9YyGwdcFhzM-2" value="$$B$$" style="text;html=1;align=center;verticalAlign=middle;resizable=0;points=[];autosize=1;strokeColor=none;fillColor=none;strokeWidth=1;fontSize=14;" parent="1" vertex="1">
          <mxGeometry x="210" y="320" width="60" height="30" as="geometry" />
        </mxCell>
        <mxCell id="_ipKOsotd9YyGwdcFhzM-3" value="Frequency" style="text;html=1;align=center;verticalAlign=middle;resizable=0;points=[];autosize=1;strokeColor=none;fillColor=none;strokeWidth=1;fontSize=14;" parent="1" vertex="1">
          <mxGeometry x="430" y="280" width="90" height="30" as="geometry" />
        </mxCell>
        <mxCell id="_ipKOsotd9YyGwdcFhzM-4" value="Power spectral&lt;br&gt;density" style="text;html=1;align=center;verticalAlign=middle;resizable=0;points=[];autosize=1;strokeColor=none;fillColor=none;strokeWidth=1;fontSize=14;" parent="1" vertex="1">
          <mxGeometry x="-20" y="-10" width="120" height="50" as="geometry" />
        </mxCell>
        <mxCell id="Fte6TmXWMnJRUo-nVgzj-2" value="" style="endArrow=none;dashed=1;html=1;rounded=0;strokeWidth=1;fontSize=14;" parent="1" edge="1">
          <mxGeometry width="50" height="50" relative="1" as="geometry">
            <mxPoint x="300" y="280" as="sourcePoint" />
            <mxPoint x="300" y="80" as="targetPoint" />
          </mxGeometry>
        </mxCell>
        <mxCell id="Fte6TmXWMnJRUo-nVgzj-3" value="" style="curved=1;endArrow=none;html=1;rounded=0;endFill=0;startArrow=none;startFill=0;strokeWidth=1;fontSize=14;" parent="1" edge="1">
          <mxGeometry width="50" height="50" relative="1" as="geometry">
            <mxPoint x="270" y="280" as="sourcePoint" />
            <mxPoint x="330" y="280" as="targetPoint" />
            <Array as="points">
              <mxPoint x="300" y="-120" />
            </Array>
          </mxGeometry>
        </mxCell>
        <mxCell id="Fte6TmXWMnJRUo-nVgzj-4" value="" style="endArrow=none;dashed=1;html=1;rounded=0;strokeWidth=1;fontSize=14;" parent="1" edge="1">
          <mxGeometry width="50" height="50" relative="1" as="geometry">
            <mxPoint x="360" y="280" as="sourcePoint" />
            <mxPoint x="360" y="80" as="targetPoint" />
          </mxGeometry>
        </mxCell>
        <mxCell id="Fte6TmXWMnJRUo-nVgzj-5" value="" style="curved=1;endArrow=none;html=1;rounded=0;endFill=0;startArrow=none;startFill=0;strokeWidth=1;fontSize=14;" parent="1" edge="1">
          <mxGeometry width="50" height="50" relative="1" as="geometry">
            <mxPoint x="330" y="280" as="sourcePoint" />
            <mxPoint x="390" y="280" as="targetPoint" />
            <Array as="points">
              <mxPoint x="360" y="-120" />
            </Array>
          </mxGeometry>
        </mxCell>
        <mxCell id="Fte6TmXWMnJRUo-nVgzj-6" value="" style="endArrow=none;dashed=1;html=1;rounded=0;strokeWidth=1;fontSize=14;" parent="1" edge="1">
          <mxGeometry width="50" height="50" relative="1" as="geometry">
            <mxPoint x="180" y="280" as="sourcePoint" />
            <mxPoint x="180" y="80" as="targetPoint" />
          </mxGeometry>
        </mxCell>
        <mxCell id="Fte6TmXWMnJRUo-nVgzj-7" value="" style="curved=1;endArrow=none;html=1;rounded=0;endFill=0;startArrow=none;startFill=0;strokeWidth=1;fontSize=14;" parent="1" edge="1">
          <mxGeometry width="50" height="50" relative="1" as="geometry">
            <mxPoint x="150" y="280" as="sourcePoint" />
            <mxPoint x="210" y="280" as="targetPoint" />
            <Array as="points">
              <mxPoint x="180" y="-120" />
            </Array>
          </mxGeometry>
        </mxCell>
        <mxCell id="Fte6TmXWMnJRUo-nVgzj-8" value="" style="endArrow=none;dashed=1;html=1;rounded=0;strokeWidth=1;fontSize=14;" parent="1" edge="1">
          <mxGeometry width="50" height="50" relative="1" as="geometry">
            <mxPoint x="120" y="280" as="sourcePoint" />
            <mxPoint x="120" y="80" as="targetPoint" />
          </mxGeometry>
        </mxCell>
        <mxCell id="Fte6TmXWMnJRUo-nVgzj-9" value="" style="curved=1;endArrow=none;html=1;rounded=0;endFill=0;startArrow=none;startFill=0;strokeWidth=1;fontSize=14;" parent="1" edge="1">
          <mxGeometry width="50" height="50" relative="1" as="geometry">
            <mxPoint x="90" y="280" as="sourcePoint" />
            <mxPoint x="150" y="280" as="targetPoint" />
            <Array as="points">
              <mxPoint x="120" y="-120" />
            </Array>
          </mxGeometry>
        </mxCell>
        <mxCell id="Fte6TmXWMnJRUo-nVgzj-10" value="" style="endArrow=classic;startArrow=classic;html=1;rounded=0;strokeWidth=1;fontSize=14;" parent="1" edge="1">
          <mxGeometry width="50" height="50" relative="1" as="geometry">
            <mxPoint x="240" y="70" as="sourcePoint" />
            <mxPoint x="270" y="70" as="targetPoint" />
          </mxGeometry>
        </mxCell>
        <mxCell id="Fte6TmXWMnJRUo-nVgzj-11" value="$$f_s$$" style="text;html=1;align=center;verticalAlign=middle;resizable=0;points=[];autosize=1;strokeColor=none;fillColor=none;strokeWidth=1;fontSize=14;" parent="1" vertex="1">
          <mxGeometry x="221" y="40" width="70" height="30" as="geometry" />
        </mxCell>
        <mxCell id="Fte6TmXWMnJRUo-nVgzj-12" value="$$f_{+L}$$" style="text;html=1;align=center;verticalAlign=middle;resizable=0;points=[];autosize=1;strokeColor=none;fillColor=none;strokeWidth=1;fontSize=14;" parent="1" vertex="1">
          <mxGeometry x="320" y="280" width="90" height="30" as="geometry" />
        </mxCell>
        <mxCell id="Fte6TmXWMnJRUo-nVgzj-13" value="$$f_{-L}$$" style="text;html=1;align=center;verticalAlign=middle;resizable=0;points=[];autosize=1;strokeColor=none;fillColor=none;strokeWidth=1;fontSize=14;" parent="1" vertex="1">
          <mxGeometry x="75" y="280" width="90" height="30" as="geometry" />
        </mxCell>
        <mxCell id="40UUUXiC3EubKJI8LC6I-1" value="" style="endArrow=none;dashed=1;html=1;rounded=0;strokeWidth=1;fontSize=14;" edge="1" parent="1">
          <mxGeometry width="50" height="50" relative="1" as="geometry">
            <mxPoint x="150" y="280" as="sourcePoint" />
            <mxPoint x="150" y="80" as="targetPoint" />
          </mxGeometry>
        </mxCell>
        <mxCell id="40UUUXiC3EubKJI8LC6I-2" value="" style="curved=1;endArrow=none;html=1;rounded=0;endFill=0;startArrow=none;startFill=0;strokeWidth=1;fontSize=14;" edge="1" parent="1">
          <mxGeometry width="50" height="50" relative="1" as="geometry">
            <mxPoint x="120" y="280" as="sourcePoint" />
            <mxPoint x="180" y="280" as="targetPoint" />
            <Array as="points">
              <mxPoint x="150" y="-120" />
            </Array>
          </mxGeometry>
        </mxCell>
        <mxCell id="40UUUXiC3EubKJI8LC6I-3" value="" style="endArrow=none;dashed=1;html=1;rounded=0;strokeWidth=1;fontSize=14;" edge="1" parent="1">
          <mxGeometry width="50" height="50" relative="1" as="geometry">
            <mxPoint x="210" y="280" as="sourcePoint" />
            <mxPoint x="210" y="80" as="targetPoint" />
          </mxGeometry>
        </mxCell>
        <mxCell id="40UUUXiC3EubKJI8LC6I-4" value="" style="curved=1;endArrow=none;html=1;rounded=0;endFill=0;startArrow=none;startFill=0;strokeWidth=1;fontSize=14;" edge="1" parent="1">
          <mxGeometry width="50" height="50" relative="1" as="geometry">
            <mxPoint x="180" y="280" as="sourcePoint" />
            <mxPoint x="240" y="280" as="targetPoint" />
            <Array as="points">
              <mxPoint x="210" y="-120" />
            </Array>
          </mxGeometry>
        </mxCell>
        <mxCell id="40UUUXiC3EubKJI8LC6I-5" value="" style="curved=1;endArrow=none;html=1;rounded=0;endFill=0;startArrow=none;startFill=0;strokeWidth=1;fontSize=14;" edge="1" parent="1">
          <mxGeometry width="50" height="50" relative="1" as="geometry">
            <mxPoint x="210" y="280" as="sourcePoint" />
            <mxPoint x="270" y="280" as="targetPoint" />
            <Array as="points">
              <mxPoint x="240" y="-120" />
            </Array>
          </mxGeometry>
        </mxCell>
        <mxCell id="40UUUXiC3EubKJI8LC6I-6" value="" style="endArrow=none;dashed=1;html=1;rounded=0;strokeWidth=1;fontSize=14;" edge="1" parent="1">
          <mxGeometry width="50" height="50" relative="1" as="geometry">
            <mxPoint x="240" y="280" as="sourcePoint" />
            <mxPoint x="240" y="80" as="targetPoint" />
          </mxGeometry>
        </mxCell>
        <mxCell id="40UUUXiC3EubKJI8LC6I-7" value="" style="curved=1;endArrow=none;html=1;rounded=0;endFill=0;startArrow=none;startFill=0;strokeWidth=1;fontSize=14;" edge="1" parent="1">
          <mxGeometry width="50" height="50" relative="1" as="geometry">
            <mxPoint x="210" y="280" as="sourcePoint" />
            <mxPoint x="270" y="280" as="targetPoint" />
            <Array as="points">
              <mxPoint x="240" y="-120" />
            </Array>
          </mxGeometry>
        </mxCell>
        <mxCell id="40UUUXiC3EubKJI8LC6I-8" value="" style="curved=1;endArrow=none;html=1;rounded=0;endFill=0;startArrow=none;startFill=0;strokeWidth=1;fontSize=14;" edge="1" parent="1">
          <mxGeometry width="50" height="50" relative="1" as="geometry">
            <mxPoint x="240" y="280" as="sourcePoint" />
            <mxPoint x="300" y="280" as="targetPoint" />
            <Array as="points">
              <mxPoint x="270" y="-120" />
            </Array>
          </mxGeometry>
        </mxCell>
        <mxCell id="40UUUXiC3EubKJI8LC6I-9" value="" style="endArrow=none;dashed=1;html=1;rounded=0;strokeWidth=1;fontSize=14;" edge="1" parent="1">
          <mxGeometry width="50" height="50" relative="1" as="geometry">
            <mxPoint x="300" y="280" as="sourcePoint" />
            <mxPoint x="300" y="80" as="targetPoint" />
          </mxGeometry>
        </mxCell>
        <mxCell id="40UUUXiC3EubKJI8LC6I-10" value="" style="curved=1;endArrow=none;html=1;rounded=0;endFill=0;startArrow=none;startFill=0;strokeWidth=1;fontSize=14;" edge="1" parent="1">
          <mxGeometry width="50" height="50" relative="1" as="geometry">
            <mxPoint x="270" y="280" as="sourcePoint" />
            <mxPoint x="330" y="280" as="targetPoint" />
            <Array as="points">
              <mxPoint x="300" y="-120" />
            </Array>
          </mxGeometry>
        </mxCell>
        <mxCell id="40UUUXiC3EubKJI8LC6I-11" value="" style="curved=1;endArrow=none;html=1;rounded=0;endFill=0;startArrow=none;startFill=0;strokeWidth=1;fontSize=14;" edge="1" parent="1">
          <mxGeometry width="50" height="50" relative="1" as="geometry">
            <mxPoint x="300" y="280" as="sourcePoint" />
            <mxPoint x="360" y="280" as="targetPoint" />
            <Array as="points">
              <mxPoint x="330" y="-120" />
            </Array>
          </mxGeometry>
        </mxCell>
        <mxCell id="40UUUXiC3EubKJI8LC6I-12" value="" style="endArrow=none;dashed=1;html=1;rounded=0;strokeWidth=1;fontSize=14;" edge="1" parent="1">
          <mxGeometry width="50" height="50" relative="1" as="geometry">
            <mxPoint x="270" y="280" as="sourcePoint" />
            <mxPoint x="270" y="80" as="targetPoint" />
          </mxGeometry>
        </mxCell>
        <mxCell id="40UUUXiC3EubKJI8LC6I-13" value="" style="endArrow=none;dashed=1;html=1;rounded=0;strokeWidth=1;fontSize=14;" edge="1" parent="1">
          <mxGeometry width="50" height="50" relative="1" as="geometry">
            <mxPoint x="330" y="280" as="sourcePoint" />
            <mxPoint x="330" y="80" as="targetPoint" />
          </mxGeometry>
        </mxCell>
      </root>
    </mxGraphModel>
  </diagram>
</mxfile>
